<svg width="80" height="81" viewBox="0 0 80 81" fill="none" xmlns="http://www.w3.org/2000/svg">
<rect x="0.5" y="0.695557" width="79" height="79" rx="9.5" stroke="#1D60A2"/>
<path d="M15 63.6956C14.7239 63.6956 14.5 63.9194 14.5 64.1956C14.5 64.4717 14.7239 64.6956 15 64.6956V63.6956ZM65 64.6956C65.2761 64.6956 65.5 64.4717 65.5 64.1956C65.5 63.9194 65.2761 63.6956 65 63.6956V64.6956ZM22.8426 17.7129C22.5667 17.7234 22.3515 17.9556 22.362 18.2315C22.3724 18.5075 22.6046 18.7227 22.8806 18.7122L22.8426 17.7129ZM20.2904 30.7386C20.1046 30.943 20.1197 31.2592 20.324 31.445C20.5284 31.6307 20.8446 31.6156 21.0303 31.4113L20.2904 30.7386ZM26.7703 42.2508C26.7268 42.5235 26.9127 42.7798 27.1853 42.8233C27.458 42.8668 27.7144 42.681 27.7579 42.4083L26.7703 42.2508ZM53.6791 18.7125C53.9553 18.7125 54.1791 18.4887 54.1791 18.2125C54.1791 17.9364 53.9553 17.7125 53.6791 17.7125L53.6791 18.7125ZM55.2282 31.4437C55.4319 31.6302 55.7482 31.6163 55.9347 31.4126C56.1212 31.209 56.1072 30.8927 55.9036 30.7062L55.2282 31.4437ZM48.7766 42.3296C48.7766 42.6057 49.0005 42.8296 49.2766 42.8296C49.5528 42.8296 49.7766 42.6057 49.7766 42.3296H48.7766ZM15 64.6956H43.3018V63.6956H15V64.6956ZM43.3018 64.6956H65V63.6956H43.3018V64.6956ZM43.7765 64.0386C38.7358 48.7938 38.9358 41.6101 38.665 26.2939L37.6651 26.3116C37.9361 41.6324 37.7344 48.9507 42.8271 64.3525L43.7765 64.0386ZM38.5574 25.9928C36.2358 23.0545 34.01 20.9115 31.5007 19.5403C28.982 18.1639 26.2141 17.5848 22.8426 17.7129L22.8806 18.7122C26.1056 18.5896 28.6881 19.1429 31.0212 20.4178C33.3638 21.698 35.4914 23.7255 37.7727 26.6127L38.5574 25.9928ZM38.1709 25.8028C33.9032 25.7529 30.5734 25.7221 27.7565 26.3319C24.903 26.9496 22.578 28.2219 20.2904 30.7386L21.0303 31.4113C23.1802 29.046 25.3215 27.8821 27.9681 27.3092C30.6512 26.7284 33.855 26.7524 38.1592 26.8027L38.1709 25.8028ZM37.8404 25.9225C34.6199 28.6722 32.1653 30.6999 30.3705 33.0586C28.5559 35.4433 27.4246 38.1491 26.7703 42.2508L27.7579 42.4083C28.392 38.4327 29.472 35.8908 31.1663 33.6642C32.8803 31.4117 35.232 29.4645 38.4897 26.683L37.8404 25.9225ZM38.5868 26.5713C40.5905 23.4247 42.5257 21.4815 44.846 20.3113C47.1727 19.1379 49.9438 18.7125 53.6791 18.7125L53.6791 17.7125C49.8814 17.7125 46.927 18.1419 44.3957 19.4184C41.858 20.6982 39.8027 22.8001 37.7433 26.0342L38.5868 26.5713ZM38.148 26.8024C42.4184 26.9482 45.3315 26.8907 47.888 27.4115C50.3956 27.9223 52.5526 28.9936 55.2282 31.4437L55.9036 30.7062C53.1175 28.155 50.8013 26.9844 48.0876 26.4316C45.4226 25.8887 42.3662 25.9458 38.1821 25.803L38.148 26.8024ZM38.165 26.3027C37.8836 26.716 37.8835 26.7159 37.8835 26.7159C37.8836 26.716 37.8836 26.716 37.8837 26.7161C37.8839 26.7162 37.8842 26.7164 37.8848 26.7168C37.8858 26.7175 37.8876 26.7187 37.8899 26.7203C37.8947 26.7236 37.9021 26.7287 37.912 26.7356C37.9319 26.7494 37.9619 26.7703 38.0013 26.7982C38.0803 26.8539 38.197 26.9375 38.3463 27.0472C38.6447 27.2667 39.0727 27.5907 39.587 28.0063C40.6163 28.8379 41.9874 30.0328 43.3569 31.4867C46.1177 34.4179 48.7766 38.3022 48.7766 42.3296H49.7766C49.7766 37.8976 46.8797 33.7685 44.0848 30.8011C42.6763 29.3057 41.2695 28.08 40.2154 27.2284C39.688 26.8023 39.2479 26.469 38.9387 26.2416C38.7841 26.1279 38.6622 26.0406 38.5783 25.9814C38.5364 25.9518 38.504 25.9292 38.4818 25.9138C38.4707 25.9061 38.4622 25.9002 38.4562 25.8961C38.4533 25.8941 38.451 25.8925 38.4494 25.8914C38.4485 25.8909 38.4479 25.8904 38.4474 25.8901C38.4472 25.8899 38.4469 25.8898 38.4468 25.8897C38.4466 25.8896 38.4465 25.8895 38.165 26.3027Z" fill="#1D60A2"/>
</svg>
