<svg width="80" height="81" viewBox="0 0 80 81" fill="none" xmlns="http://www.w3.org/2000/svg">
<rect x="0.5" y="0.695557" width="79" height="79" rx="9.5" stroke="#1D60A2"/>
<path d="M52 58.1956H58.8781M66.7738 58.1956H58.8781M58.8781 58.1956C61.1022 50.8157 61.3344 46.5829 61.0855 38.9267M61.0855 38.9267C58.8752 35.5783 57.2566 34.5891 53.2747 34.1956M61.0855 38.9267C63.342 35.8203 65.057 35.0391 68.8114 34.8837M61.0855 38.9267C65.343 38.5024 67.2319 39.0694 70 41.4214M61.0855 38.9267C64.2003 41.4035 65.5926 43.1286 66.7738 47.3568M61.0855 38.9267C57.6063 41.4302 56.5298 43.3939 55.3123 47.3568M61.0855 38.9267C57.0246 38.3628 55.0106 38.9641 52.0012 41.4214" stroke="#1D60A2" stroke-linecap="round" stroke-linejoin="round"/>
<path d="M30.5 23.1956L8 58.1956H35.8304M30.5 23.1956L53 58.1956H35.8304M30.5 23.1956L35.8304 58.1956" stroke="#1D60A2" stroke-linejoin="round"/>
<circle cx="47" cy="23.1956" r="5.5" stroke="#1D60A2"/>
</svg>
