<svg width="81" height="81" viewBox="0 0 81 81" fill="none" xmlns="http://www.w3.org/2000/svg">
<rect x="1.3374" y="0.695557" width="79" height="79" rx="9.5" stroke="#1D60A2"/>
<path d="M63.0733 24.4771H22.6977C21.5335 24.4771 20.5898 25.4207 20.5898 26.5849V33.4002C20.5898 33.9315 20.7905 34.4432 21.1516 34.8329L24.3192 38.251C25.0715 39.0627 25.0679 40.3179 24.3111 41.1252L21.1598 44.4869C20.7936 44.8776 20.5898 45.393 20.5898 45.9285V52.9934C20.5898 54.1575 21.5335 55.1012 22.6977 55.1012H63.0733C64.2375 55.1012 65.1812 54.1575 65.1812 52.9934V26.5849C65.1812 25.4207 64.2375 24.4771 63.0733 24.4771Z" stroke="#1D60A2" stroke-linecap="round" stroke-linejoin="round"/>
<circle cx="36.9126" cy="46.3538" r="3.58594" stroke="#1D60A2"/>
<circle cx="49.0371" cy="46.3538" r="3.58594" stroke="#1D60A2"/>
<path d="M40.4875 46.0139L38.3285 36.6917M52.5884 46.0139L50.4828 36.6917M50.4828 36.6917L49.1049 30.9514H36.9126L38.3285 36.6917M50.4828 36.6917H38.3285" stroke="#1D60A2" stroke-linecap="round" stroke-linejoin="round"/>
</svg>
