<svg xmlns="http://www.w3.org/2000/svg" width="600" height="109" viewBox="0 0 600 109" fill="none">
  <path fill="#4BA0DE" d="M17.1 55.986c-.015.516-.055 1.023-.055 1.537 0 19.72 16.947 35.702 37.855 35.702 12.402 0 23.4-5.638 30.303-14.341-.643-.418-2.787-1.29-3.427-1.725-6.93 7.43-15.56 12.584-26.876 12.584-20.214 0-36.72-14.945-37.8-33.757"/>
  <path fill="#2C60AC" d="M56.118 54.8c-.448 0-.687.01-.687.01 0-31.536-23.01-46.863-24.692-47.945C12.684 15.677.293 33.826.293 54.81c0 29.623 24.686 53.626 55.138 53.626 22.615 0 42.032-13.24 50.548-32.18l-.142-.165C87.444 55.709 60.72 54.8 56.118 54.8Zm-.687 41.365c-23.442 0-42.515-18.552-42.515-41.355 0-13.08 6.216-25.073 16.64-32.812 5.6 5.704 13.256 16.49 13.256 32.812l-.07 12.746 13.087-.475h.29c2.214 0 19.728.361 34.134 11.467-7.87 10.903-20.791 17.617-34.822 17.617"/>
  <path fill="#F35E1C" d="M64.55 45.858s.242-.01.69-.01c.824 0 2.376.027 4.465.196 7.773-1.39 17.998-1.071 29.182 2.733a72.29 72.29 0 0 1 5.74 2.216c-3.723-4.337-16.023-12.541-34.76-7.25-1.045.294-2.082.62-3.108.974 0 0 8.28-5.998 20.861-6.088 6.388-.042 13.872 1.438 21.946 5.989-4.889-24.741-27.262-43.436-54.135-43.436-3.432 0-6.856.312-10.228.932C52.5 8.704 64.55 23.032 64.55 45.858"/>
  <path fill="#FAD108" d="M66.76 44.721a52.726 52.726 0 0 1 3.107-.978c18.737-5.291 31.037 2.913 34.76 7.25a72.29 72.29 0 0 0-5.74-2.216c-11.184-3.804-21.41-4.123-29.182-2.733 8.497.685 25.937 3.653 40.326 16.245a52.87 52.87 0 0 0 .543-7.48 52.59 52.59 0 0 0-1.008-10.19c-8.074-4.562-15.558-6.032-21.946-5.99-12.58.09-20.86 6.093-20.86 6.093"/>
  <path fill="#2C60AC" d="M173.618 25.68v8.899h-19.153V79h-10.693V25.68h29.846Zm-22.632 19.19h10.144c3.565 0 6.653.695 9.265 2.087 2.613 1.391 4.627 3.356 6.043 5.895 1.44 2.54 2.161 5.506 2.161 8.9 0 2.563-.416 4.895-1.246 6.994-.805 2.1-1.977 3.919-3.515 5.457-1.514 1.538-3.345 2.722-5.493 3.552-2.124.83-4.529 1.245-7.215 1.245h-17.358V25.68h10.73v44.458h6.628c1.49 0 2.735-.39 3.736-1.172 1.001-.781 1.757-1.807 2.27-3.076.513-1.27.769-2.674.769-4.212 0-1.489-.256-2.832-.769-4.028-.513-1.196-1.269-2.136-2.27-2.82-1.001-.708-2.246-1.062-3.736-1.062h-10.144V44.87Zm40.358 16.259 9.851-21.753h9.888V79h-10.144V57.32L191.124 79H181.2V39.376h10.144v21.753Zm45.998-39.185h8.239c0 1.954-.207 3.638-.622 5.054-.415 1.416-1.087 2.625-2.014 3.625-.904 1.002-2.124 1.856-3.662 2.564-1.538.708-3.467 1.318-5.787 1.831-1.611.39-3.015 1.074-4.211 2.05-1.196.953-2.173 2.247-2.93 3.883-.756 1.611-1.281 3.662-1.574 6.152-.293 2.466-.367 5.432-.22 8.899v1.648l-7.91 1.208v-1.61c0-4.81.354-8.997 1.062-12.562.732-3.564 1.758-6.567 3.076-9.009 1.318-2.441 2.905-4.382 4.761-5.822a16.59 16.59 0 0 1 6.152-3.077c1.294-.39 2.356-.769 3.186-1.135.83-.366 1.44-.842 1.831-1.428.415-.586.623-1.343.623-2.27Zm-2.82 19.63c2.27 0 4.272.463 6.006 1.39 1.733.904 3.186 2.198 4.358 3.883 1.171 1.66 2.05 3.625 2.636 5.896.611 2.246.916 4.7.916 7.36v.77c0 2.71-.342 5.224-1.026 7.544-.683 2.294-1.696 4.296-3.039 6.005-1.318 1.685-2.979 3.003-4.981 3.955-1.977.928-4.26 1.392-6.848 1.392-2.563 0-4.834-.513-6.811-1.538-1.978-1.025-3.65-2.454-5.017-4.285-1.343-1.855-2.356-4.028-3.04-6.518-.683-2.49-1.025-5.213-1.025-8.167v-.805c0-.391.171-.77.512-1.136.367-.39.806-.842 1.319-1.355.513-.512.94-1.16 1.282-1.94 1.342-2.735 2.746-5.03 4.211-6.885 1.489-1.856 3.101-3.247 4.834-4.175 1.758-.928 3.662-1.392 5.713-1.392Zm-1.978 8.532c-1.465 0-2.612.464-3.442 1.392-.806.903-1.379 2.111-1.721 3.625-.318 1.514-.476 3.162-.476 4.944v.769c0 1.44.085 2.795.256 4.065.171 1.245.464 2.356.879 3.332.439.953 1.025 1.697 1.758 2.234.757.513 1.684.77 2.783.77 1.074 0 1.977-.257 2.71-.77.732-.537 1.306-1.281 1.721-2.234.44-.976.745-2.087.916-3.332.171-1.27.256-2.625.256-4.065v-.733c0-1.367-.098-2.648-.293-3.845-.171-1.196-.464-2.246-.879-3.15-.415-.927-.989-1.66-1.721-2.196-.733-.538-1.648-.806-2.747-.806Zm43.068-10.73v8.533h-16.04v-8.533h16.04Zm7.654 0V79h-10.254V39.376h10.254Zm-26.184 0h10.071l-.989 20.105c-.122 2.856-.391 5.359-.806 7.507-.415 2.149-.964 3.992-1.648 5.53-.683 1.538-1.513 2.783-2.49 3.735a8.762 8.762 0 0 1-3.259 2.088c-1.196.44-2.539.659-4.029.659h-3.039l-.11-8.606 1.172-.146a3.155 3.155 0 0 0 1.611-.66c.489-.366.904-.903 1.245-1.61.342-.709.611-1.612.806-2.71.22-1.1.391-2.394.513-3.883.122-1.489.219-3.198.293-5.127l.659-16.882Zm42.482 21.753 9.851-21.753h9.888V79h-10.144V57.32L299.344 79h-9.924V39.376h10.144v21.753Zm24.684-.586V57.87c0-3.101.366-5.847 1.099-8.24.756-2.393 1.831-4.395 3.222-6.006a13.38 13.38 0 0 1 5.017-3.699c1.978-.854 4.187-1.281 6.629-1.281 2.466 0 4.675.427 6.628 1.281a13.311 13.311 0 0 1 5.054 3.699c1.416 1.611 2.502 3.613 3.259 6.006.757 2.392 1.135 5.139 1.135 8.24v2.673c0 3.076-.378 5.81-1.135 8.203s-1.843 4.407-3.259 6.043a13.38 13.38 0 0 1-5.017 3.698c-1.953.83-4.151 1.245-6.592 1.245s-4.651-.415-6.628-1.245a13.69 13.69 0 0 1-5.054-3.698c-1.416-1.636-2.503-3.65-3.259-6.043-.733-2.392-1.099-5.127-1.099-8.203Zm10.254-2.673v2.673c0 1.831.122 3.418.366 4.76.269 1.344.647 2.454 1.135 3.333.513.88 1.123 1.526 1.831 1.941.708.415 1.526.623 2.454.623.928 0 1.758-.208 2.49-.623.733-.415 1.331-1.062 1.795-1.94.488-.88.842-1.99 1.062-3.333.244-1.343.366-2.93.366-4.761V57.87c0-1.783-.134-3.345-.403-4.688-.269-1.367-.647-2.478-1.135-3.332-.489-.88-1.099-1.538-1.831-1.978-.708-.464-1.514-.696-2.417-.696-.904 0-1.709.232-2.417.696-.684.44-1.282 1.099-1.795 1.978-.488.854-.866 1.965-1.135 3.332-.244 1.343-.366 2.905-.366 4.688Zm73.062-32.19v8.899h-19.19V79h-10.693V25.68h29.883Zm18.092 13.696v8.533h-16.04v-8.533h16.04Zm7.654 0V79h-10.254V39.376h10.254Zm-26.184 0h10.071l-.989 20.105c-.122 2.856-.391 5.359-.806 7.507-.415 2.149-.964 3.992-1.648 5.53-.683 1.538-1.513 2.783-2.49 3.735a8.77 8.77 0 0 1-3.259 2.088c-1.197.44-2.539.659-4.029.659h-3.039l-.11-8.606 1.172-.146a3.155 3.155 0 0 0 1.611-.66c.489-.366.904-.903 1.245-1.61.342-.709.611-1.612.806-2.71.22-1.1.391-2.394.513-3.883.122-1.489.219-3.198.293-5.127l.659-16.882Zm31.166 21.167V57.87c0-3.101.366-5.847 1.099-8.24.756-2.393 1.831-4.395 3.222-6.006a13.38 13.38 0 0 1 5.017-3.699c1.978-.854 4.187-1.281 6.629-1.281 2.465 0 4.675.427 6.628 1.281a13.311 13.311 0 0 1 5.054 3.699c1.416 1.611 2.502 3.613 3.259 6.006.757 2.392 1.135 5.139 1.135 8.24v2.673c0 3.076-.378 5.81-1.135 8.203s-1.843 4.407-3.259 6.043a13.38 13.38 0 0 1-5.017 3.698c-1.953.83-4.151 1.245-6.592 1.245s-4.651-.415-6.629-1.245a13.695 13.695 0 0 1-5.053-3.698c-1.416-1.636-2.503-3.65-3.259-6.043-.733-2.392-1.099-5.127-1.099-8.203Zm10.254-2.673v2.673c0 1.831.122 3.418.366 4.76.269 1.344.647 2.454 1.135 3.333.513.88 1.123 1.526 1.831 1.941.708.415 1.526.623 2.454.623.928 0 1.758-.208 2.49-.623.733-.415 1.331-1.062 1.795-1.94.488-.88.842-1.99 1.062-3.333.244-1.343.366-2.93.366-4.761V57.87c0-1.783-.134-3.345-.403-4.688-.269-1.367-.647-2.478-1.135-3.332-.489-.88-1.099-1.538-1.831-1.978-.708-.464-1.514-.696-2.417-.696-.904 0-1.709.232-2.417.696-.684.44-1.282 1.099-1.795 1.978-.488.854-.866 1.965-1.135 3.332-.244 1.343-.366 2.905-.366 4.688Zm46.913-35.926h8.24c0 1.954-.208 3.638-.623 5.054-.415 1.416-1.086 2.625-2.014 3.625-.903 1.002-2.124 1.856-3.662 2.564-1.538.708-3.467 1.318-5.786 1.831-1.612.39-3.015 1.074-4.212 2.05-1.196.953-2.173 2.247-2.929 3.883-.757 1.611-1.282 3.662-1.575 6.152-.293 2.466-.366 5.432-.22 8.899v1.648l-7.91 1.208v-1.61c0-4.81.354-8.997 1.062-12.562.732-3.564 1.758-6.567 3.076-9.009 1.318-2.441 2.905-4.382 4.761-5.822a16.59 16.59 0 0 1 6.152-3.077c1.294-.39 2.356-.769 3.186-1.135.83-.366 1.441-.842 1.831-1.428.415-.586.623-1.343.623-2.27Zm-2.82 19.63c2.271 0 4.272.463 6.006 1.39 1.733.904 3.186 2.198 4.358 3.883 1.172 1.66 2.051 3.625 2.637 5.896.61 2.246.915 4.7.915 7.36v.77c0 2.71-.342 5.224-1.025 7.544-.684 2.294-1.697 4.296-3.04 6.005-1.318 1.685-2.978 3.003-4.98 3.955-1.978.928-4.261 1.392-6.849 1.392-2.563 0-4.833-.513-6.811-1.538-1.978-1.025-3.65-2.454-5.017-4.285-1.343-1.855-2.356-4.028-3.04-6.518-.683-2.49-1.025-5.213-1.025-8.167v-.805c0-.391.171-.77.513-1.136.366-.39.805-.842 1.318-1.355.513-.512.94-1.16 1.282-1.94 1.343-2.735 2.746-5.03 4.211-6.885 1.489-1.856 3.101-3.247 4.834-4.175 1.758-.928 3.662-1.392 5.713-1.392Zm-1.978 8.532c-1.464 0-2.612.464-3.442 1.392-.806.903-1.379 2.111-1.721 3.625-.317 1.514-.476 3.162-.476 4.944v.769c0 1.44.085 2.795.256 4.065.171 1.245.464 2.356.879 3.332.44.953 1.025 1.697 1.758 2.234.757.513 1.684.77 2.783.77 1.074 0 1.978-.257 2.71-.77.733-.537 1.306-1.281 1.721-2.234.44-.976.745-2.087.916-3.332.171-1.27.256-2.625.256-4.065v-.733c0-1.367-.098-2.648-.293-3.845-.171-1.196-.464-2.246-.879-3.15-.415-.927-.988-1.66-1.721-2.196-.732-.538-1.648-.806-2.747-.806Zm30.764 24.353 8.276-35.083h10.693l-13.037 45.557a25.67 25.67 0 0 1-1.208 3.222 13.728 13.728 0 0 1-2.051 3.296c-.83 1.05-1.88 1.905-3.149 2.564-1.27.659-2.796.988-4.578.988-.903 0-1.636-.06-2.197-.183a20.678 20.678 0 0 1-2.051-.512v-7.984h.622c.22.025.428.037.623.037 1.148 0 2.063-.159 2.747-.476a3.655 3.655 0 0 0 1.648-1.392c.439-.635.805-1.428 1.098-2.38l2.564-7.654Zm-2.124-35.083 6.152 28.418 1.392 11.572-6.922.66-11.609-40.65h10.987ZM557.168 71.2c.952 0 1.77-.196 2.454-.586.708-.39 1.245-1.026 1.611-1.904.366-.88.562-2.015.586-3.406h9.632c0 2.978-.635 5.554-1.905 7.727-1.245 2.148-2.929 3.808-5.053 4.98-2.1 1.148-4.48 1.721-7.142 1.721-2.661 0-4.98-.427-6.958-1.281-1.977-.855-3.613-2.1-4.907-3.736-1.269-1.635-2.234-3.625-2.893-5.969-.635-2.368-.952-5.078-.952-8.13v-2.893c0-3.003.317-5.688.952-8.056.659-2.369 1.624-4.37 2.893-6.006 1.294-1.636 2.918-2.881 4.871-3.736 1.977-.854 4.297-1.281 6.958-1.281 2.856 0 5.334.598 7.434 1.794 2.1 1.172 3.735 2.905 4.907 5.2 1.196 2.295 1.795 5.127 1.795 8.496h-9.632c-.024-1.513-.207-2.77-.549-3.772-.317-1.025-.818-1.806-1.502-2.343-.659-.562-1.538-.843-2.636-.843-1.148 0-2.075.244-2.783.733-.684.464-1.209 1.147-1.575 2.05-.342.88-.574 1.978-.696 3.296a48.915 48.915 0 0 0-.183 4.468v2.893c0 1.782.049 3.333.146 4.651.122 1.294.354 2.393.696 3.296.366.879.891 1.538 1.575 1.977.708.44 1.66.66 2.856.66Z"/>
</svg>
