<svg xmlns="http://www.w3.org/2000/svg" fill="none" viewBox="0 0 213 32"><path fill="#436095" fill-rule="evenodd" d="M3.575 16.0124c0-2.1121.6377-4.2155 1.414-5.6039.5758-1.0308 2.2258-3.4028 3.3533-3.6653.1011.3805.7383.9802 1.22 1.6934 2.5763 3.8148 2.2224 6.9125 2.2224 11.2835 3.5533 0 5.5985-.511 9.1784.8856 2.846 1.1112 2.1029 1.1226 4.0633 2.1599-1.432 2.7063-5.86 5.032-9.004 5.032-3.8593 0-6.3857-.8943-9.0376-3.5418-2.1806-2.1779-3.4098-4.9734-3.4098-8.2434ZM0 15.4829c0 4.3649 1.2966 8.2825 4.2693 11.2231 1.2933 1.2803 2.5149 2.2349 4.2051 3.0781 7.1947 3.5887 16.0072 1.0428 20.0732-5.7485l.9813-1.9322c-.4714-.3153-.8079-.7382-1.2249-1.1585-3.1042-3.133-8.3347-4.9325-12.9437-4.9325 0-2.366-.0479-2.9602-.7465-5.3446-.935-3.1945-3.4956-6.656-6.1394-8.4266L6.832 3.247C5.212 4.326 3.774 5.7097 2.7003 7.3254 1.1531 9.6517 0 12.4493 0 15.483Z" clip-rule="evenodd"/><path fill="#F6723F" fill-rule="evenodd" d="m19.4122 13.629.4942-.2158c.1696-.0392.4327-.049.6121-.062 3.8882-.2756 4.8923.4284 8.2379 1.3868-.3398-.6143-1.221-1.1047-1.8348-1.4053-1.6646-.8166-3.6626-1.0906-5.5719-.8573-.978.119-1.838.4642-2.6557.5855 4.0817-2.5117 7.6486-2.0121 11.7619-.0006-.0538-2.1245-2.173-5.8496-3.8045-7.5447C23.1384 1.866 17.6399-.2618 12.5796.9168c.5127.766 1.9006 1.9599 2.908 3.7132.8633 1.5026 1.5488 3.0422 1.937 4.8161.2936 1.344.4518 2.4622.4518 4.0502.7399 0 .9546-.0348 1.5358.1327Z" clip-rule="evenodd"/><mask id="a" width="173" height="27" x="40.1479" y="3.7573" fill="#000" maskUnits="userSpaceOnUse"><path fill="#fff" d="M40.1479 3.7573h173v27h-173z"/><path fill-rule="evenodd" d="M113.746 18.6612c0-2.9841 1.743-4.6162 4.525-4.6162 2.237 0 4.744 2.0942 4.744 4.3514 0 3.3032-2.015 4.7667-5.164 4.7667-1.899 0-4.105-2.1512-4.105-4.5019Zm60.515-7.0186 10.329-4.502V4.8895c-.616.0517-7.692 3.35-8.402 3.6566-.666.3637-1.884 1.0721-1.927 3.0966Zm-133.0796-.1321L51.6423 7.008V4.7573c-2.0909.4866-6.7157 2.9548-8.9028 3.9415-1.4336.8818-1.3667 1.8245-1.5581 2.8117Zm28.4699 0L80.1122 7.008V4.7573c-1.1808.2746-7.7307 3.2217-8.9028 3.9415-1.1444.7035-1.3092 1.7418-1.5581 2.8117Zm65.2817 1.1917V25.017h2.119V14.2913h6.091c.553 0 .397-.4594.397-1.5891 0-.305-.092-.3974-.397-.3974h-7.813c-.305 0-.397.0924-.397.3974Zm39.328 5.032c.722-1.2199 1.542-3.2559 4.37-3.3108 5.77 0 6.012 8.4511.538 8.8898-4.108.1038-4.553-2.6291-4.908-3.1956 0 .7502.005 1.5021-.001 2.2523-.009 1.1673-.179 1.2722.603 1.7805 4.723 3.0069 10.73-.0729 10.389-5.754 0-4.7564-6.147-7.6328-10.086-4.5248-1.257.9911-.905 1.5804-.905 3.8626Zm-104.6097-.1326c.231-.2985 1.2156-3.1782 4.1051-3.1782 6.8298 0 5.8192 8.8718.3968 8.8718-1.3781 0-2.3942-.5311-3.1651-1.3368-1.0688-1.3483-.921-1.3564-1.3368-1.9734 0 .7062.0032 1.4134-.0006 2.1191-.0054 1.0308-.1962 1.3227.4447 1.8065 1.7506 1.3211 2.721 1.239 4.72 1.239 2.7677 0 5.8263-2.9417 5.8263-5.6942 0-2.4513-.112-3.338-1.9523-5.1978-3.7849-3.8257-8.8794-.71-9.0425.8242-.0685.6453.0044 1.8163.0044 2.5198Zm-28.4699 0c.3061-.4648 1.4168-3.1113 4.1051-3.1782 1.3287 0 2.6476.1577 3.599 1.3004 2.7144 3.2608.4316 7.5714-3.2021 7.5714-2.509 0-3.2592-1.482-4.502-3.3102 0 .7062.0033 1.4134-.0005 2.1191-.0055 1.0308-.1963 1.3227.4447 1.8065 1.7293.9003 2.4111 1.2678 4.1013 1.2396 5.6131-.0278 8.5782-6.7652 4.4927-10.8926-3.7952-3.8338-8.8805-.7008-9.0425.8242-.068.6453.0043 1.8163.0043 2.5198ZM202.1 23.3969c2.915 2.9156 8.156 2.4002 9.9-.8959-.528-.354-.878-.753-1.456-1.0596-1.422 1.3825-3.271 3.3331-6.789.6969-2.952-2.9612-1.213-8.1117 3.213-8.1117 2.141 0 2.925 1.4618 3.708 1.9859L212 14.8208c-2.505-3.7408-8.256-3.923-11.071.7144-1.462 2.4105-.747 5.9448 1.171 7.8617Zm-119.0744-.2338h-.9269c0 2.0626-.1909 1.8539.9269 1.8539 3.8691 0 3.9724-7.8471 3.9724-10.8583H91.5v10.7256h2.1186V12.3048h-8.6071c0 2.1404.0582 10.8583-1.9859 10.8583Zm60.6464.1321c0 2.0143-.168 1.8544.795 1.8544.972 0 1.683-.4523 2.296-1.1471 1.563-1.7712 1.677-7.1066 1.677-9.7112h4.634V25.017h2.119V12.4375h-8.607c0 2.2376-.058 8.376-1.211 10.1771-.526.8225-.839.6806-1.703.6806Zm48.068 1.3244c0 .2343-.907 2.0512-1.054 2.2561-1.173 1.6282-2.426 1.1835-3.978 1.0547v1.7212c.817.392 2.148.4224 3.125.2126 2.701-.5796 3.604-4.2394 4.776-6.7456l4.547-10.6811h-2.119c-.859 1.6222-2.824 6.9206-3.871 9.2382-.249.5513.074.2376-.367.5605-.263-1.1313-3.763-8.9006-3.972-9.7987h-2.251l2.561 6.0459c.282.6333 2.603 5.9883 2.603 6.1362Zm-91.7651-3.5751v-8.7397h-1.9865v12.9769c1.1814 0 .8008-.2147 2.4866-2.1479l5.856-6.8565v8.607h2.118V12.0401c-1.23 0-.948.0614-2.629 2.1376l-5.8451 6.8668Zm-42.2415 0v-8.7397h-2.1181v12.9769c.7845 0 .7405.0718 1.1411-.4474 2.2469-2.9096 4.9385-5.8578 7.3333-8.6891v8.7391h1.986V12.0401c-.9074 0-.7938-.0626-1.4162.7023-2.2801 2.7993-4.5553 5.5757-6.9261 8.3021Zm102.4916-1.8538c0-4.577 4.407-6.8299 7.511-4.2008.62.5257 1.079 1.1031 1.381 1.9289 1.597 7.255-7.592 8.108-8.892 2.2719Zm-2.119-.7943c0 3.9839 2.901 6.8853 6.886 6.8853 3.47 0 6.488-2.9357 6.488-6.8853 0-3.4543-2.941-6.489-6.885-6.489-3.414 0-6.489 3.0754-6.489 6.489Zm-46.346-.1326c0 7.972 10.158 9.273 12.753 3.0868 1.933-4.6074-1.173-9.4432-6.264-9.4432-3.392 0-6.489 2.9923-6.489 6.3564Z" clip-rule="evenodd"/></mask><path fill="#436095" fill-rule="evenodd" d="M113.746 18.6612c0-2.9841 1.743-4.6162 4.525-4.6162 2.237 0 4.744 2.0942 4.744 4.3514 0 3.3032-2.015 4.7667-5.164 4.7667-1.899 0-4.105-2.1512-4.105-4.5019Zm60.515-7.0186 10.329-4.502V4.8895c-.616.0517-7.692 3.35-8.402 3.6566-.666.3637-1.884 1.0721-1.927 3.0966Zm-133.0796-.1321L51.6423 7.008V4.7573c-2.0909.4866-6.7157 2.9548-8.9028 3.9415-1.4336.8818-1.3667 1.8245-1.5581 2.8117Zm28.4699 0L80.1122 7.008V4.7573c-1.1808.2746-7.7307 3.2217-8.9028 3.9415-1.1444.7035-1.3092 1.7418-1.5581 2.8117Zm65.2817 1.1917V25.017h2.119V14.2913h6.091c.553 0 .397-.4594.397-1.5891 0-.305-.092-.3974-.397-.3974h-7.813c-.305 0-.397.0924-.397.3974Zm39.328 5.032c.722-1.2199 1.542-3.2559 4.37-3.3108 5.77 0 6.012 8.4511.538 8.8898-4.108.1038-4.553-2.6291-4.908-3.1956 0 .7502.005 1.5021-.001 2.2523-.009 1.1673-.179 1.2722.603 1.7805 4.723 3.0069 10.73-.0729 10.389-5.754 0-4.7564-6.147-7.6328-10.086-4.5248-1.257.9911-.905 1.5804-.905 3.8626Zm-104.6097-.1326c.231-.2985 1.2156-3.1782 4.1051-3.1782 6.8298 0 5.8192 8.8718.3968 8.8718-1.3781 0-2.3942-.5311-3.1651-1.3368-1.0688-1.3483-.921-1.3564-1.3368-1.9734 0 .7062.0032 1.4134-.0006 2.1191-.0054 1.0308-.1962 1.3227.4447 1.8065 1.7506 1.3211 2.721 1.239 4.72 1.239 2.7677 0 5.8263-2.9417 5.8263-5.6942 0-2.4513-.112-3.338-1.9523-5.1978-3.7849-3.8257-8.8794-.71-9.0425.8242-.0685.6453.0044 1.8163.0044 2.5198Zm-28.4699 0c.3061-.4648 1.4168-3.1113 4.1051-3.1782 1.3287 0 2.6476.1577 3.599 1.3004 2.7144 3.2608.4316 7.5714-3.2021 7.5714-2.509 0-3.2592-1.482-4.502-3.3102 0 .7062.0033 1.4134-.0005 2.1191-.0055 1.0308-.1963 1.3227.4447 1.8065 1.7293.9003 2.4111 1.2678 4.1013 1.2396 5.6131-.0278 8.5782-6.7652 4.4927-10.8926-3.7952-3.8338-8.8805-.7008-9.0425.8242-.068.6453.0043 1.8163.0043 2.5198ZM202.1 23.3969c2.915 2.9156 8.156 2.4002 9.9-.8959-.528-.354-.878-.753-1.456-1.0596-1.422 1.3825-3.271 3.3331-6.789.6969-2.952-2.9612-1.213-8.1117 3.213-8.1117 2.141 0 2.925 1.4618 3.708 1.9859L212 14.8208c-2.505-3.7408-8.256-3.923-11.071.7144-1.462 2.4105-.747 5.9448 1.171 7.8617Zm-119.0744-.2338h-.9269c0 2.0626-.1909 1.8539.9269 1.8539 3.8691 0 3.9724-7.8471 3.9724-10.8583H91.5v10.7256h2.1186V12.3048h-8.6071c0 2.1404.0582 10.8583-1.9859 10.8583Zm60.6464.1321c0 2.0143-.168 1.8544.795 1.8544.972 0 1.683-.4523 2.296-1.1471 1.563-1.7712 1.677-7.1066 1.677-9.7112h4.634V25.017h2.119V12.4375h-8.607c0 2.2376-.058 8.376-1.211 10.1771-.526.8225-.839.6806-1.703.6806Zm48.068 1.3244c0 .2343-.907 2.0512-1.054 2.2561-1.173 1.6282-2.426 1.1835-3.978 1.0547v1.7212c.817.392 2.148.4224 3.125.2126 2.701-.5796 3.604-4.2394 4.776-6.7456l4.547-10.6811h-2.119c-.859 1.6222-2.824 6.9206-3.871 9.2382-.249.5513.074.2376-.367.5605-.263-1.1313-3.763-8.9006-3.972-9.7987h-2.251l2.561 6.0459c.282.6333 2.603 5.9883 2.603 6.1362Zm-91.7651-3.5751v-8.7397h-1.9865v12.9769c1.1814 0 .8008-.2147 2.4866-2.1479l5.856-6.8565v8.607h2.118V12.0401c-1.23 0-.948.0614-2.629 2.1376l-5.8451 6.8668Zm-42.2415 0v-8.7397h-2.1181v12.9769c.7845 0 .7405.0718 1.1411-.4474 2.2469-2.9096 4.9385-5.8578 7.3333-8.6891v8.7391h1.986V12.0401c-.9074 0-.7938-.0626-1.4162.7023-2.2801 2.7993-4.5553 5.5757-6.9261 8.3021Zm102.4916-1.8538c0-4.577 4.407-6.8299 7.511-4.2008.62.5257 1.079 1.1031 1.381 1.9289 1.597 7.255-7.592 8.108-8.892 2.2719Zm-2.119-.7943c0 3.9839 2.901 6.8853 6.886 6.8853 3.47 0 6.488-2.9357 6.488-6.8853 0-3.4543-2.941-6.489-6.885-6.489-3.414 0-6.489 3.0754-6.489 6.489Zm-46.346-.1326c0 7.972 10.158 9.273 12.753 3.0868 1.933-4.6074-1.173-9.4432-6.264-9.4432-3.392 0-6.489 2.9923-6.489 6.3564Z" clip-rule="evenodd"/><path stroke="#1D60A2" stroke-width=".8" d="M113.746 18.6612c0-2.9841 1.743-4.6162 4.525-4.6162 2.237 0 4.744 2.0942 4.744 4.3514 0 3.3032-2.015 4.7667-5.164 4.7667-1.899 0-4.105-2.1512-4.105-4.5019Zm60.515-7.0186 10.329-4.502V4.8895c-.616.0517-7.692 3.35-8.402 3.6566-.666.3637-1.884 1.0721-1.927 3.0966Zm-133.0796-.1321L51.6423 7.008V4.7573c-2.0909.4866-6.7157 2.9548-8.9028 3.9415-1.4336.8818-1.3667 1.8245-1.5581 2.8117Zm28.4699 0L80.1122 7.008V4.7573c-1.1808.2746-7.7307 3.2217-8.9028 3.9415-1.1444.7035-1.3092 1.7418-1.5581 2.8117Zm65.2817 1.1917V25.017h2.119V14.2913h6.091c.553 0 .397-.4594.397-1.5891 0-.305-.092-.3974-.397-.3974h-7.813c-.305 0-.397.0924-.397.3974Zm39.328 5.032c.722-1.2199 1.542-3.2559 4.37-3.3108 5.77 0 6.012 8.4511.538 8.8898-4.108.1038-4.553-2.6291-4.908-3.1956 0 .7502.005 1.5021-.001 2.2523-.009 1.1673-.179 1.2722.603 1.7805 4.723 3.0069 10.73-.0729 10.389-5.754 0-4.7564-6.147-7.6328-10.086-4.5248-1.257.9911-.905 1.5804-.905 3.8626Zm-104.6097-.1326c.231-.2985 1.2156-3.1782 4.1051-3.1782 6.8298 0 5.8192 8.8718.3968 8.8718-1.3781 0-2.3942-.5311-3.1651-1.3368-1.0688-1.3483-.921-1.3564-1.3368-1.9734 0 .7062.0032 1.4134-.0006 2.1191-.0054 1.0308-.1962 1.3227.4447 1.8065 1.7506 1.3211 2.721 1.239 4.72 1.239 2.7677 0 5.8263-2.9417 5.8263-5.6942 0-2.4513-.112-3.338-1.9523-5.1978-3.7849-3.8257-8.8794-.71-9.0425.8242-.0685.6453.0044 1.8163.0044 2.5198Zm-28.4699 0c.3061-.4648 1.4168-3.1113 4.1051-3.1782 1.3287 0 2.6476.1577 3.599 1.3004 2.7144 3.2608.4316 7.5714-3.2021 7.5714-2.509 0-3.2592-1.482-4.502-3.3102 0 .7062.0033 1.4134-.0005 2.1191-.0055 1.0308-.1963 1.3227.4447 1.8065 1.7293.9003 2.4111 1.2678 4.1013 1.2396 5.6131-.0278 8.5782-6.7652 4.4927-10.8926-3.7952-3.8338-8.8805-.7008-9.0425.8242-.068.6453.0043 1.8163.0043 2.5198ZM202.1 23.3969c2.915 2.9156 8.156 2.4002 9.9-.8959-.528-.354-.878-.753-1.456-1.0596-1.422 1.3825-3.271 3.3331-6.789.6969-2.952-2.9612-1.213-8.1117 3.213-8.1117 2.141 0 2.925 1.4618 3.708 1.9859L212 14.8208c-2.505-3.7408-8.256-3.923-11.071.7144-1.462 2.4105-.747 5.9448 1.171 7.8617Zm-119.0744-.2338h-.9269c0 2.0626-.1909 1.8539.9269 1.8539 3.8691 0 3.9724-7.8471 3.9724-10.8583H91.5v10.7256h2.1186V12.3048h-8.6071c0 2.1404.0582 10.8583-1.9859 10.8583Zm60.6464.1321c0 2.0143-.168 1.8544.795 1.8544.972 0 1.683-.4523 2.296-1.1471 1.563-1.7712 1.677-7.1066 1.677-9.7112h4.634V25.017h2.119V12.4375h-8.607c0 2.2376-.058 8.376-1.211 10.1771-.526.8225-.839.6806-1.703.6806Zm48.068 1.3244c0 .2343-.907 2.0512-1.054 2.2561-1.173 1.6282-2.426 1.1835-3.978 1.0547v1.7212c.817.392 2.148.4224 3.125.2126 2.701-.5796 3.604-4.2394 4.776-6.7456l4.547-10.6811h-2.119c-.859 1.6222-2.824 6.9206-3.871 9.2382-.249.5513.074.2376-.367.5605-.263-1.1313-3.763-8.9006-3.972-9.7987h-2.251l2.561 6.0459c.282.6333 2.603 5.9883 2.603 6.1362Zm-91.7651-3.5751v-8.7397h-1.9865v12.9769c1.1814 0 .8008-.2147 2.4866-2.1479l5.856-6.8565v8.607h2.118V12.0401c-1.23 0-.948.0614-2.629 2.1376l-5.8451 6.8668Zm-42.2415 0v-8.7397h-2.1181v12.9769c.7845 0 .7405.0718 1.1411-.4474 2.2469-2.9096 4.9385-5.8578 7.3333-8.6891v8.7391h1.986V12.0401c-.9074 0-.7938-.0626-1.4162.7023-2.2801 2.7993-4.5553 5.5757-6.9261 8.3021Zm102.4916-1.8538c0-4.577 4.407-6.8299 7.511-4.2008.62.5257 1.079 1.1031 1.381 1.9289 1.597 7.255-7.592 8.108-8.892 2.2719Zm-2.119-.7943c0 3.9839 2.901 6.8853 6.886 6.8853 3.47 0 6.488-2.9357 6.488-6.8853 0-3.4543-2.941-6.489-6.885-6.489-3.414 0-6.489 3.0754-6.489 6.489Zm-46.346-.1326c0 7.972 10.158 9.273 12.753 3.0868 1.933-4.6074-1.173-9.4432-6.264-9.4432-3.392 0-6.489 2.9923-6.489 6.3564Z" clip-rule="evenodd" mask="url(#a)"/><path fill="#FED133" fill-rule="evenodd" d="M19.4121 13.6291c2.6954 0 6.3889 1.3721 8.1052 2.4089.7666.4632 1.731.9938 2.3752 1.6016.2159.2033.4997.5844.7182.3653.4235-.4229.0125-4.5362-.1549-4.9445-4.1133-2.0115-7.6802-2.5111-11.7619.0006.8177-.1213 1.6777-.4665 2.6557-.5855 1.9093-.2333 3.9072.0407 5.5719.8573.6138.3006 1.495.791 1.8348 1.4053-3.3456-.9584-4.3497-1.6625-8.2379-1.3868-.1794.013-.4425.0228-.6122.0619l-.4941.2159Z" clip-rule="evenodd"/><path fill="#41A0DB" fill-rule="evenodd" d="m23.7025 22.8983-1.0574-.5339c-1.0378 1.5511-4.1426 3.5794-6.7553 3.5794-3.2511 0-5.6872-.5828-8.0444-2.946-.7954-.7976-1.5445-1.6446-2.0561-2.7112-.4072-.8492-1.0226-2.5758-1.0226-3.7441H4.634c0 5.1641 3.237 8.5342 7.0164 9.933 4.148 1.5353 9.6367.0299 12.0521-3.5772Z" clip-rule="evenodd"/></svg>