<svg xmlns="http://www.w3.org/2000/svg" width="600" height="109" viewBox="0 0 600 109" fill="none">
<path d="M17.0999 55.9862C17.0855 56.5018 17.0449 57.0085 17.0449 57.5231C17.0449 77.2426 33.9916 93.2251 54.9 93.2251C67.3024 93.2251 78.2991 87.5867 85.2026 78.8839C84.5598 78.4659 82.4157 77.5936 81.7762 77.1595C74.8455 84.5888 66.2165 89.7426 54.9 89.7426C34.6861 89.7426 18.1804 74.7975 17.0999 55.9862" fill="#4BA0DE"/>
<path d="M56.1185 54.7998C55.6701 54.7998 55.4309 54.8096 55.4309 54.8096C55.4309 23.2745 32.4211 7.94727 30.7394 6.86513C12.6845 15.6771 0.292786 33.8264 0.292786 54.8096C0.292649 84.4335 24.979 108.436 55.4309 108.436C78.0457 108.436 97.4625 95.1961 105.979 76.2555L105.837 76.0915C87.444 55.7084 60.7199 54.7998 56.1185 54.7998ZM55.4309 96.165C31.9892 96.165 12.9161 77.6128 12.9161 54.8096C12.9161 41.7307 19.1319 29.7368 29.5558 21.9977C35.1551 27.7025 42.8123 38.488 42.8123 54.8096L42.7424 67.5563L55.8292 67.0813H56.1185C58.3326 67.0813 75.8467 67.4425 90.2531 78.5479C82.3834 89.4514 69.4615 96.165 55.4309 96.165" fill="#2C60AC"/>
<path d="M64.5504 45.8581C64.5504 45.8581 64.7921 45.8481 65.2401 45.8481C66.0644 45.8481 67.6163 45.8747 69.7049 46.0444C77.4775 44.6545 87.7027 44.9727 98.8873 48.7771C100.777 49.4195 102.69 50.1449 104.627 50.9927C100.904 46.6556 88.6044 38.4517 69.8671 43.7426C68.8216 44.0375 67.7853 44.3624 66.7595 44.7168C66.7595 44.7168 75.0399 38.7195 87.6204 38.6293C94.0083 38.5871 101.492 40.067 109.566 44.618C104.677 19.8766 82.3036 1.18155 55.4307 1.18155C51.9992 1.1821 48.5752 1.49414 45.2034 2.11362C52.4998 8.70372 64.5504 23.0325 64.5504 45.8581" fill="#F35E1C"/>
<path d="M66.7595 44.7215C67.7845 44.3634 68.8209 44.037 69.8671 43.7426C88.6045 38.4517 100.904 46.6556 104.627 50.9927C102.69 50.1449 100.777 49.4195 98.8873 48.7771C87.7027 44.9727 77.4775 44.6545 69.7049 46.0445C78.2024 46.7288 95.6419 49.6972 110.031 62.2887C110.38 59.8441 110.574 57.3492 110.574 54.8096C110.574 51.3255 110.218 47.9245 109.566 44.6181C101.492 40.0572 94.0083 38.5872 87.6204 38.6293C75.0399 38.7196 66.7595 44.7215 66.7595 44.7215" fill="#FAD108"/>
<path d="M173.618 25.6797V34.5786H154.465V79H143.772V25.6797H173.618ZM150.986 44.8691H161.13C164.695 44.8691 167.783 45.5649 170.395 46.9565C173.008 48.3481 175.022 50.3135 176.438 52.8525C177.878 55.3916 178.599 58.3579 178.599 61.7515C178.599 64.3149 178.183 66.6465 177.353 68.7461C176.548 70.8457 175.376 72.6646 173.838 74.2026C172.324 75.7407 170.493 76.9248 168.345 77.7549C166.221 78.585 163.816 79 161.13 79H143.772V25.6797H154.502V70.1377H161.13C162.62 70.1377 163.865 69.7471 164.866 68.9658C165.867 68.1846 166.623 67.1592 167.136 65.8896C167.649 64.6201 167.905 63.2163 167.905 61.6782C167.905 60.189 167.649 58.8462 167.136 57.6499C166.623 56.4536 165.867 55.5137 164.866 54.8301C163.865 54.1221 162.62 53.7681 161.13 53.7681H150.986V44.8691ZM191.344 61.1289L201.195 39.376H211.083V79H200.939V57.3203L191.124 79H181.2V39.376H191.344V61.1289ZM237.342 21.9443H245.581C245.581 23.8975 245.374 25.582 244.959 26.998C244.544 28.4141 243.872 29.6226 242.945 30.6235C242.041 31.6245 240.821 32.479 239.283 33.187C237.745 33.895 235.816 34.5054 233.496 35.0181C231.885 35.4087 230.481 36.0923 229.285 37.0688C228.089 38.021 227.112 39.3149 226.355 40.9507C225.599 42.562 225.074 44.6128 224.781 47.103C224.488 49.5688 224.414 52.5352 224.561 56.002V57.6499L216.651 58.8584V57.2471C216.651 52.4375 217.005 48.2505 217.713 44.686C218.445 41.1216 219.471 38.1187 220.789 35.6772C222.107 33.2358 223.694 31.2949 225.55 29.8545C227.405 28.3896 229.456 27.3643 231.702 26.7783C232.996 26.3877 234.058 26.0093 234.888 25.6431C235.718 25.2769 236.328 24.8008 236.719 24.2148C237.134 23.6289 237.342 22.8721 237.342 21.9443ZM234.522 41.5732C236.792 41.5732 238.794 42.0371 240.528 42.9648C242.261 43.8682 243.714 45.1621 244.886 46.8467C246.057 48.5068 246.936 50.4722 247.522 52.7427C248.133 54.9888 248.438 57.4424 248.438 60.1035V60.8726C248.438 63.5825 248.096 66.0972 247.412 68.4165C246.729 70.7114 245.716 72.7134 244.373 74.4224C243.055 76.1069 241.394 77.4253 239.392 78.3774C237.415 79.3052 235.132 79.769 232.544 79.769C229.981 79.769 227.71 79.2563 225.733 78.231C223.755 77.2056 222.083 75.7773 220.716 73.9463C219.373 72.0908 218.36 69.918 217.676 67.4277C216.993 64.9375 216.651 62.2153 216.651 59.2612V58.4556C216.651 58.0649 216.822 57.6865 217.163 57.3203C217.53 56.9297 217.969 56.478 218.482 55.9653C218.995 55.4526 219.422 54.8057 219.764 54.0244C221.106 51.29 222.51 48.9951 223.975 47.1396C225.464 45.2842 227.076 43.8926 228.809 42.9648C230.567 42.0371 232.471 41.5732 234.522 41.5732ZM232.544 50.106C231.079 50.106 229.932 50.5698 229.102 51.4976C228.296 52.4009 227.723 53.6094 227.381 55.123C227.063 56.6367 226.905 58.2847 226.905 60.0669V60.8359C226.905 62.2764 226.99 63.6313 227.161 64.9009C227.332 66.146 227.625 67.2568 228.04 68.2334C228.479 69.1855 229.065 69.9302 229.798 70.4673C230.555 70.98 231.482 71.2363 232.581 71.2363C233.655 71.2363 234.558 70.98 235.291 70.4673C236.023 69.9302 236.597 69.1855 237.012 68.2334C237.452 67.2568 237.757 66.146 237.928 64.9009C238.099 63.6313 238.184 62.2764 238.184 60.8359V60.1035C238.184 58.7363 238.086 57.4546 237.891 56.2583C237.72 55.062 237.427 54.0122 237.012 53.1089C236.597 52.1812 236.023 51.4487 235.291 50.9116C234.558 50.3745 233.643 50.106 232.544 50.106ZM275.612 39.376V47.9087H259.572V39.376H275.612ZM283.266 39.376V79H273.012V39.376H283.266ZM257.082 39.376H267.153L266.164 59.481C266.042 62.3374 265.773 64.8398 265.358 66.9883C264.943 69.1367 264.394 70.98 263.71 72.5181C263.027 74.0562 262.197 75.3013 261.22 76.2534C260.268 77.2056 259.182 77.9014 257.961 78.3408C256.765 78.7803 255.422 79 253.932 79H250.893L250.783 70.394L251.955 70.2476C252.565 70.1743 253.102 69.9546 253.566 69.5884C254.055 69.2222 254.47 68.6851 254.811 67.9771C255.153 67.269 255.422 66.3657 255.617 65.2671C255.837 64.1685 256.008 62.8745 256.13 61.3853C256.252 59.896 256.349 58.187 256.423 56.2583L257.082 39.376ZM299.564 61.1289L309.415 39.376H319.303V79H309.159V57.3203L299.344 79H289.42V39.376H299.564V61.1289ZM324.248 60.543V57.8696C324.248 54.769 324.614 52.0225 325.347 49.6299C326.103 47.2373 327.178 45.2354 328.569 43.624C329.961 41.9883 331.633 40.7554 333.586 39.9253C335.564 39.0708 337.773 38.6436 340.215 38.6436C342.681 38.6436 344.89 39.0708 346.843 39.9253C348.821 40.7554 350.505 41.9883 351.897 43.624C353.313 45.2354 354.399 47.2373 355.156 49.6299C355.913 52.0225 356.291 54.769 356.291 57.8696V60.543C356.291 63.6191 355.913 66.3535 355.156 68.7461C354.399 71.1387 353.313 73.1528 351.897 74.7886C350.505 76.4243 348.833 77.6572 346.88 78.4873C344.927 79.3174 342.729 79.7324 340.288 79.7324C337.847 79.7324 335.637 79.3174 333.66 78.4873C331.706 77.6572 330.022 76.4243 328.606 74.7886C327.19 73.1528 326.103 71.1387 325.347 68.7461C324.614 66.3535 324.248 63.6191 324.248 60.543ZM334.502 57.8696V60.543C334.502 62.374 334.624 63.9609 334.868 65.3037C335.137 66.6465 335.515 67.7573 336.003 68.6362C336.516 69.5151 337.126 70.1621 337.834 70.5771C338.542 70.9922 339.36 71.1997 340.288 71.1997C341.216 71.1997 342.046 70.9922 342.778 70.5771C343.511 70.1621 344.109 69.5151 344.573 68.6362C345.061 67.7573 345.415 66.6465 345.635 65.3037C345.879 63.9609 346.001 62.374 346.001 60.543V57.8696C346.001 56.0874 345.867 54.5249 345.598 53.1821C345.329 51.8149 344.951 50.7041 344.463 49.8496C343.974 48.9707 343.364 48.3115 342.632 47.8721C341.924 47.4082 341.118 47.1763 340.215 47.1763C339.311 47.1763 338.506 47.4082 337.798 47.8721C337.114 48.3115 336.516 48.9707 336.003 49.8496C335.515 50.7041 335.137 51.8149 334.868 53.1821C334.624 54.5249 334.502 56.0874 334.502 57.8696ZM407.564 25.6797V34.5786H388.374V79H377.681V25.6797H407.564ZM425.656 39.376V47.9087H409.616V39.376H425.656ZM433.31 39.376V79H423.056V39.376H433.31ZM407.126 39.376H417.197L416.208 59.481C416.086 62.3374 415.817 64.8398 415.402 66.9883C414.987 69.1367 414.438 70.98 413.754 72.5181C413.071 74.0562 412.241 75.3013 411.264 76.2534C410.312 77.2056 409.225 77.9014 408.005 78.3408C406.808 78.7803 405.466 79 403.976 79H400.937L400.827 70.394L401.999 70.2476C402.609 70.1743 403.146 69.9546 403.61 69.5884C404.099 69.2222 404.514 68.6851 404.855 67.9771C405.197 67.269 405.466 66.3657 405.661 65.2671C405.881 64.1685 406.052 62.8745 406.174 61.3853C406.296 59.896 406.393 58.187 406.467 56.2583L407.126 39.376ZM438.292 60.543V57.8696C438.292 54.769 438.658 52.0225 439.391 49.6299C440.147 47.2373 441.222 45.2354 442.613 43.624C444.005 41.9883 445.677 40.7554 447.63 39.9253C449.608 39.0708 451.817 38.6436 454.259 38.6436C456.724 38.6436 458.934 39.0708 460.887 39.9253C462.865 40.7554 464.549 41.9883 465.941 43.624C467.357 45.2354 468.443 47.2373 469.2 49.6299C469.957 52.0225 470.335 54.769 470.335 57.8696V60.543C470.335 63.6191 469.957 66.3535 469.2 68.7461C468.443 71.1387 467.357 73.1528 465.941 74.7886C464.549 76.4243 462.877 77.6572 460.924 78.4873C458.971 79.3174 456.773 79.7324 454.332 79.7324C451.891 79.7324 449.681 79.3174 447.703 78.4873C445.75 77.6572 444.066 76.4243 442.65 74.7886C441.234 73.1528 440.147 71.1387 439.391 68.7461C438.658 66.3535 438.292 63.6191 438.292 60.543ZM448.546 57.8696V60.543C448.546 62.374 448.668 63.9609 448.912 65.3037C449.181 66.6465 449.559 67.7573 450.047 68.6362C450.56 69.5151 451.17 70.1621 451.878 70.5771C452.586 70.9922 453.404 71.1997 454.332 71.1997C455.26 71.1997 456.09 70.9922 456.822 70.5771C457.555 70.1621 458.153 69.5151 458.617 68.6362C459.105 67.7573 459.459 66.6465 459.679 65.3037C459.923 63.9609 460.045 62.374 460.045 60.543V57.8696C460.045 56.0874 459.911 54.5249 459.642 53.1821C459.373 51.8149 458.995 50.7041 458.507 49.8496C458.018 48.9707 457.408 48.3115 456.676 47.8721C455.968 47.4082 455.162 47.1763 454.259 47.1763C453.355 47.1763 452.55 47.4082 451.842 47.8721C451.158 48.3115 450.56 48.9707 450.047 49.8496C449.559 50.7041 449.181 51.8149 448.912 53.1821C448.668 54.5249 448.546 56.0874 448.546 57.8696ZM495.459 21.9443H503.699C503.699 23.8975 503.491 25.582 503.076 26.998C502.661 28.4141 501.99 29.6226 501.062 30.6235C500.159 31.6245 498.938 32.479 497.4 33.187C495.862 33.895 493.933 34.5054 491.614 35.0181C490.002 35.4087 488.599 36.0923 487.402 37.0688C486.206 38.021 485.229 39.3149 484.473 40.9507C483.716 42.562 483.191 44.6128 482.898 47.103C482.605 49.5688 482.532 52.5352 482.678 56.002V57.6499L474.768 58.8584V57.2471C474.768 52.4375 475.122 48.2505 475.83 44.686C476.562 41.1216 477.588 38.1187 478.906 35.6772C480.224 33.2358 481.811 31.2949 483.667 29.8545C485.522 28.3896 487.573 27.3643 489.819 26.7783C491.113 26.3877 492.175 26.0093 493.005 25.6431C493.835 25.2769 494.446 24.8008 494.836 24.2148C495.251 23.6289 495.459 22.8721 495.459 21.9443ZM492.639 41.5732C494.91 41.5732 496.911 42.0371 498.645 42.9648C500.378 43.8682 501.831 45.1621 503.003 46.8467C504.175 48.5068 505.054 50.4722 505.64 52.7427C506.25 54.9888 506.555 57.4424 506.555 60.1035V60.8726C506.555 63.5825 506.213 66.0972 505.53 68.4165C504.846 70.7114 503.833 72.7134 502.49 74.4224C501.172 76.1069 499.512 77.4253 497.51 78.3774C495.532 79.3052 493.249 79.769 490.661 79.769C488.098 79.769 485.828 79.2563 483.85 78.231C481.872 77.2056 480.2 75.7773 478.833 73.9463C477.49 72.0908 476.477 69.918 475.793 67.4277C475.11 64.9375 474.768 62.2153 474.768 59.2612V58.4556C474.768 58.0649 474.939 57.6865 475.281 57.3203C475.647 56.9297 476.086 56.478 476.599 55.9653C477.112 55.4526 477.539 54.8057 477.881 54.0244C479.224 51.29 480.627 48.9951 482.092 47.1396C483.581 45.2842 485.193 43.8926 486.926 42.9648C488.684 42.0371 490.588 41.5732 492.639 41.5732ZM490.661 50.106C489.197 50.106 488.049 50.5698 487.219 51.4976C486.413 52.4009 485.84 53.6094 485.498 55.123C485.181 56.6367 485.022 58.2847 485.022 60.0669V60.8359C485.022 62.2764 485.107 63.6313 485.278 64.9009C485.449 66.146 485.742 67.2568 486.157 68.2334C486.597 69.1855 487.182 69.9302 487.915 70.4673C488.672 70.98 489.599 71.2363 490.698 71.2363C491.772 71.2363 492.676 70.98 493.408 70.4673C494.141 69.9302 494.714 69.1855 495.129 68.2334C495.569 67.2568 495.874 66.146 496.045 64.9009C496.216 63.6313 496.301 62.2764 496.301 60.8359V60.1035C496.301 58.7363 496.203 57.4546 496.008 56.2583C495.837 55.062 495.544 54.0122 495.129 53.1089C494.714 52.1812 494.141 51.4487 493.408 50.9116C492.676 50.3745 491.76 50.106 490.661 50.106ZM521.425 74.459L529.701 39.376H540.394L527.357 84.9326C527.064 85.9336 526.661 87.0078 526.149 88.1553C525.636 89.3271 524.953 90.4258 524.098 91.4512C523.268 92.501 522.218 93.3555 520.949 94.0146C519.679 94.6738 518.153 95.0034 516.371 95.0034C515.468 95.0034 514.735 94.9424 514.174 94.8203C513.637 94.7227 512.953 94.5518 512.123 94.3076V86.3242C512.343 86.3242 512.55 86.3242 512.745 86.3242C512.965 86.3486 513.173 86.3608 513.368 86.3608C514.516 86.3608 515.431 86.2021 516.115 85.8848C516.798 85.5918 517.348 85.1279 517.763 84.4932C518.202 83.8584 518.568 83.0649 518.861 82.1128L521.425 74.459ZM519.301 39.376L525.453 67.7939L526.845 79.3662L519.923 80.0254L508.314 39.376H519.301ZM557.168 71.1997C558.12 71.1997 558.938 71.0044 559.622 70.6138C560.33 70.2231 560.867 69.5884 561.233 68.7095C561.599 67.8306 561.795 66.6953 561.819 65.3037H571.451C571.451 68.2822 570.816 70.8579 569.546 73.0308C568.301 75.1792 566.617 76.8394 564.493 78.0112C562.393 79.1587 560.013 79.7324 557.351 79.7324C554.69 79.7324 552.371 79.3052 550.393 78.4507C548.416 77.5962 546.78 76.3511 545.486 74.7153C544.217 73.0796 543.252 71.0898 542.593 68.7461C541.958 66.3779 541.641 63.668 541.641 60.6162V57.7231C541.641 54.7202 541.958 52.0347 542.593 49.6665C543.252 47.2983 544.217 45.2964 545.486 43.6606C546.78 42.0249 548.404 40.7798 550.357 39.9253C552.334 39.0708 554.654 38.6436 557.315 38.6436C560.171 38.6436 562.649 39.2417 564.749 40.438C566.849 41.6099 568.484 43.3433 569.656 45.6382C570.852 47.9331 571.451 50.7651 571.451 54.1343H561.819C561.795 52.6206 561.612 51.3633 561.27 50.3623C560.953 49.3369 560.452 48.5557 559.768 48.0186C559.109 47.457 558.23 47.1763 557.132 47.1763C555.984 47.1763 555.057 47.4204 554.349 47.9087C553.665 48.3726 553.14 49.0562 552.774 49.9595C552.432 50.8384 552.2 51.937 552.078 53.2554C551.956 54.5737 551.895 56.063 551.895 57.7231V60.6162C551.895 62.3984 551.944 63.9487 552.041 65.2671C552.163 66.561 552.395 67.6597 552.737 68.563C553.103 69.4419 553.628 70.1011 554.312 70.5405C555.02 70.98 555.972 71.1997 557.168 71.1997Z" fill="#2C60AC"/>
</svg>