<svg width="111" height="108" viewBox="0 0 111 108" fill="none" xmlns="http://www.w3.org/2000/svg">
<path d="M17.0999 54.9862C17.0855 55.5018 17.0449 56.0085 17.0449 56.5231C17.0449 76.2426 33.9916 92.2251 54.9 92.2251C67.3024 92.2251 78.2991 86.5867 85.2026 77.8839C84.5598 77.4659 82.4157 76.5936 81.7762 76.1595C74.8455 83.5888 66.2165 88.7426 54.9 88.7426C34.6861 88.7426 18.1804 73.7975 17.0999 54.9862Z" fill="#4BA0DE"/>
<path d="M56.1185 53.7998C55.6701 53.7998 55.4309 53.8096 55.4309 53.8096C55.4309 22.2745 32.4211 6.94725 30.7394 5.86511C12.6845 14.6771 0.292786 32.8264 0.292786 53.8096C0.292649 83.4335 24.979 107.436 55.4309 107.436C78.0457 107.436 97.4625 94.1961 105.979 75.2555L105.837 75.0915C87.444 54.7084 60.7199 53.7998 56.1185 53.7998ZM55.4309 95.165C31.9892 95.165 12.9161 76.6128 12.9161 53.8096C12.9161 40.7307 19.1319 28.7368 29.5558 20.9977C35.1551 26.7025 42.8123 37.488 42.8123 53.8096L42.7424 66.5563L55.8292 66.0813H56.1185C58.3326 66.0813 75.8467 66.4425 90.2531 77.5479C82.3834 88.4514 69.4615 95.165 55.4309 95.165Z" fill="#2C60AC"/>
<path d="M64.5504 44.8581C64.5504 44.8581 64.7921 44.8481 65.2401 44.8481C66.0644 44.8481 67.6163 44.8747 69.7049 45.0444C77.4775 43.6545 87.7027 43.9727 98.8873 47.7771C100.777 48.4195 102.69 49.1449 104.627 49.9927C100.904 45.6556 88.6044 37.4517 69.8671 42.7426C68.8216 43.0375 67.7853 43.3624 66.7595 43.7168C66.7595 43.7168 75.0399 37.7195 87.6204 37.6293C94.0083 37.5871 101.492 39.067 109.566 43.618C104.677 18.8766 82.3036 0.18158 55.4307 0.18158C51.9992 0.18213 48.5752 0.49417 45.2034 1.11365C52.4998 7.70375 64.5504 22.0325 64.5504 44.8581Z" fill="#F35E1C"/>
<path d="M66.7595 43.7215C67.7845 43.3634 68.8209 43.037 69.8671 42.7426C88.6045 37.4517 100.904 45.6556 104.627 49.9927C102.69 49.1449 100.777 48.4195 98.8873 47.7771C87.7027 43.9727 77.4775 43.6545 69.7049 45.0445C78.2024 45.7288 95.6419 48.6972 110.031 61.2887C110.38 58.8441 110.574 56.3492 110.574 53.8096C110.574 50.3255 110.218 46.9245 109.566 43.6181C101.492 39.0572 94.0083 37.5872 87.6204 37.6293C75.0399 37.7196 66.7595 43.7215 66.7595 43.7215Z" fill="#FAD108"/>
</svg>
